<svg width="780" height="400" aria-label="A chart.">
	<rect x="0" y="0" width="780" height="400" stroke="none" stroke-width="0" fill="#ffffff"></rect>
	<g>
		<rect x="660" y="10" width="107" height="139" stroke="none" stroke-width="0" fill-opacity="0" fill="#ffffff"></rect>
		<g>
			<rect x="660" y="10" width="107" height="13" stroke="none" stroke-width="0" fill-opacity="0" fill="#ffffff"></rect>
			<g>
				<text text-anchor="start" x="691" y="21.05" font-family="Arial" font-size="13" stroke="none" stroke-width="0" fill="#222222">Consulting
				</text>
			</g>
			<rect x="660" y="16.5" width="26" height="6.5" stroke="none" stroke-width="0" fill-opacity="0.3" fill="#dd4477"></rect>
			<path d="M660,16.5L686,16.5" stroke="#dd4477" stroke-width="2" fill-opacity="1" fill="none"></path>
		</g>
		<g>
			<rect x="660" y="31" width="107" height="13" stroke="none" stroke-width="0" fill-opacity="0" fill="#ffffff"></rect>
			<g>
				<text text-anchor="start" x="691" y="42.05" font-family="Arial" font-size="13" stroke="none" stroke-width="0" fill="#222222">CI
				</text>
			</g>
			<rect x="660" y="37.5" width="26" height="6.5" stroke="none" stroke-width="0" fill-opacity="0.3" fill="#0099c6"></rect>
			<path d="M660,37.5L686,37.5" stroke="#0099c6" stroke-width="2" fill-opacity="1" fill="none"></path>
		</g>
		<g>
			<rect x="660" y="52" width="107" height="13" stroke="none" stroke-width="0" fill-opacity="0" fill="#ffffff"></rect>
			<g>
				<text text-anchor="start" x="691" y="63.05" font-family="Arial" font-size="13" stroke="none" stroke-width="0" fill="#222222">Performance
				</text>
			</g>
			<rect x="660" y="58.5" width="26" height="6.5" stroke="none" stroke-width="0" fill-opacity="0.3" fill="#990099"></rect>
			<path d="M660,58.5L686,58.5" stroke="#990099" stroke-width="2" fill-opacity="1" fill="none"></path>
		</g>
		<g>
			<rect x="660" y="73" width="107" height="13" stroke="none" stroke-width="0" fill-opacity="0" fill="#ffffff"></rect>
			<g>
				<text text-anchor="start" x="691" y="84.05" font-family="Arial" font-size="13" stroke="none" stroke-width="0" fill="#222222">Bash
				</text>
			</g>
			<rect x="660" y="79.5" width="26" height="6.5" stroke="none" stroke-width="0" fill-opacity="0.3" fill="#109618"></rect>
			<path d="M660,79.5L686,79.5" stroke="#109618" stroke-width="2" fill-opacity="1" fill="none"></path>
		</g>
		<g>
			<rect x="660" y="94" width="107" height="13" stroke="none" stroke-width="0" fill-opacity="0" fill="#ffffff"></rect>
			<g>
				<text text-anchor="start" x="691" y="105.05" font-family="Arial" font-size="13" stroke="none" stroke-width="0" fill="#222222">JavaScript
				</text>
			</g>
			<rect x="660" y="100.5" width="26" height="6.5" stroke="none" stroke-width="0" fill-opacity="0.3" fill="#ff9900"></rect>
			<path d="M660,100.5L686,100.5" stroke="#ff9900" stroke-width="2" fill-opacity="1" fill="none"></path>
		</g>
		<g>
			<rect x="660" y="115" width="107" height="13" stroke="none" stroke-width="0" fill-opacity="0" fill="#ffffff"></rect>
			<g>
				<text text-anchor="start" x="691" y="126.05" font-family="Arial" font-size="13" stroke="none" stroke-width="0" fill="#222222">HTML/CSS
				</text>
			</g>
			<rect x="660" y="121.5" width="26" height="6.5" stroke="none" stroke-width="0" fill-opacity="0.3" fill="#dc3912"></rect>
			<path d="M660,121.5L686,121.5" stroke="#dc3912" stroke-width="2" fill-opacity="1" fill="none"></path>
		</g>
		<g>
			<rect x="660" y="136" width="107" height="13" stroke="none" stroke-width="0" fill-opacity="0" fill="#ffffff"></rect>
			<g>
				<text text-anchor="start" x="691" y="147.05" font-family="Arial" font-size="13" stroke="none" stroke-width="0" fill="#222222">PHP
				</text>
			</g>
			<rect x="660" y="142.5" width="26" height="6.5" stroke="none" stroke-width="0" fill-opacity="0.3" fill="#3366cc"></rect>
			<path d="M660,142.5L686,142.5" stroke="#3366cc" stroke-width="2" fill-opacity="1" fill="none"></path>
		</g>
	</g>
	<g>
		<rect x="70" y="10" width="577" height="360" stroke="none" stroke-width="0" fill-opacity="0" fill="#ffffff"></rect>
		<g clip-path="url(http://localhost:63342/my-resume/chart.html?_ijt=clic6gl2on45h3tajpj0d49t6h#_ABSTRACT_RENDERER_ID_0)">
			<g>
				<rect x="70" y="369" width="577" height="1" stroke="none" stroke-width="0" fill="#cccccc"></rect>
				<rect x="70" y="297" width="577" height="1" stroke="none" stroke-width="0" fill="#cccccc"></rect>
				<rect x="70" y="225" width="577" height="1" stroke="none" stroke-width="0" fill="#cccccc"></rect>
				<rect x="70" y="154" width="577" height="1" stroke="none" stroke-width="0" fill="#cccccc"></rect>
				<rect x="70" y="82" width="577" height="1" stroke="none" stroke-width="0" fill="#cccccc"></rect>
				<rect x="70" y="10" width="577" height="1" stroke="none" stroke-width="0" fill="#cccccc"></rect>
			</g>
			<g>
				<g>
					<path d="M70.5,369.5L70.5,369.5L70.5,172.04999999999998L106.5,154.1L142.5,136.15L178.5,136.15L214.5,154.1L250.5,136.15L286.5,172.04999999999998L322.5,261.8L358.5,261.8L394.5,261.8L430.5,261.8L466.5,297.7L502.5,279.75L538.5,279.75L574.5,351.55L610.5,351.55L646.5,369.5L646.5,369.5L610.5,369.5L574.5,369.5L538.5,369.5L502.5,369.5L466.5,369.5L430.5,369.5L394.5,369.5L358.5,369.5L322.5,369.5L286.5,369.5L250.5,369.5L214.5,369.5L178.5,369.5L142.5,369.5L106.5,369.5L70.5,369.5" stroke="none" stroke-width="0" fill-opacity="0.3" fill="#3366cc"></path>
				</g>
				<g>
					<path d="M70.5,369.5L70.5,369.5L70.5,46.39999999999998L106.5,46.39999999999998L142.5,64.35000000000002L178.5,64.35000000000002L214.5,100.25L250.5,100.25L286.5,100.25L322.5,100.25L358.5,100.25L394.5,154.1L430.5,225.9L466.5,261.8L502.5,243.85000000000002L538.5,243.85000000000002L574.5,315.65L610.5,315.65L646.5,333.6L646.5,369.5L646.5,369.5L610.5,351.55L574.5,351.55L538.5,279.75L502.5,279.75L466.5,297.7L430.5,261.8L394.5,261.8L358.5,261.8L322.5,261.8L286.5,172.04999999999998L250.5,136.15L214.5,154.1L178.5,136.15L142.5,136.15L106.5,154.1L70.5,172.04999999999998L70.5,369.5" stroke="none" stroke-width="0" fill-opacity="0.3" fill="#dc3912"></path>
				</g>
				<g>
					<path d="M70.5,369.5L70.5,369.5L70.5,10.5L106.5,10.5L142.5,28.44999999999999L178.5,28.44999999999999L214.5,46.39999999999998L250.5,46.39999999999998L286.5,46.39999999999998L322.5,46.39999999999998L358.5,46.39999999999998L394.5,82.30000000000001L430.5,154.1L466.5,190L502.5,154.1L538.5,154.1L574.5,190L610.5,190L646.5,154.1L646.5,369.5L646.5,369.5L646.5,333.6L610.5,315.65L574.5,315.65L538.5,243.85000000000002L502.5,243.85000000000002L466.5,261.8L430.5,225.9L394.5,154.1L358.5,100.25L322.5,100.25L286.5,100.25L250.5,100.25L214.5,100.25L178.5,64.35000000000002L142.5,64.35000000000002L106.5,46.39999999999998L70.5,46.39999999999998L70.5,369.5" stroke="none" stroke-width="0" fill-opacity="0.3" fill="#ff9900"></path>
				</g>
				<g>
					<path d="M70.5,369.5L70.5,369.5L70.5,10.5L106.5,10.5L142.5,28.44999999999999L178.5,28.44999999999999L214.5,46.39999999999998L250.5,46.39999999999998L286.5,46.39999999999998L322.5,46.39999999999998L358.5,46.39999999999998L394.5,82.30000000000001L430.5,136.15L466.5,172.04999999999998L502.5,136.15L538.5,136.15L574.5,172.04999999999998L610.5,172.04999999999998L646.5,136.15L646.5,369.5L646.5,369.5L646.5,154.1L610.5,190L574.5,190L538.5,154.1L502.5,154.1L466.5,190L430.5,154.1L394.5,82.30000000000001L358.5,46.39999999999998L322.5,46.39999999999998L286.5,46.39999999999998L250.5,46.39999999999998L214.5,46.39999999999998L178.5,28.44999999999999L142.5,28.44999999999999L106.5,10.5L70.5,10.5L70.5,369.5" stroke="none" stroke-width="0" fill-opacity="0.3" fill="#109618"></path>
				</g>
				<g>
					<path d="M70.5,369.5L70.5,369.5L70.5,10.5L106.5,10.5L142.5,28.44999999999999L178.5,28.44999999999999L214.5,46.39999999999998L250.5,46.39999999999998L286.5,46.39999999999998L322.5,46.39999999999998L358.5,46.39999999999998L394.5,82.30000000000001L430.5,136.15L466.5,118.20000000000002L502.5,82.30000000000001L538.5,82.30000000000001L574.5,118.20000000000002L610.5,118.20000000000002L646.5,64.35000000000002L646.5,369.5L646.5,369.5L646.5,136.15L610.5,172.04999999999998L574.5,172.04999999999998L538.5,136.15L502.5,136.15L466.5,172.04999999999998L430.5,136.15L394.5,82.30000000000001L358.5,46.39999999999998L322.5,46.39999999999998L286.5,46.39999999999998L250.5,46.39999999999998L214.5,46.39999999999998L178.5,28.44999999999999L142.5,28.44999999999999L106.5,10.5L70.5,10.5L70.5,369.5" stroke="none" stroke-width="0" fill-opacity="0.3" fill="#990099"></path>
				</g>
				<g>
					<path d="M70.5,369.5L70.5,369.5L70.5,10.5L106.5,10.5L142.5,28.44999999999999L178.5,28.44999999999999L214.5,46.39999999999998L250.5,46.39999999999998L286.5,46.39999999999998L322.5,46.39999999999998L358.5,46.39999999999998L394.5,82.30000000000001L430.5,136.15L466.5,118.20000000000002L502.5,82.30000000000001L538.5,82.30000000000001L574.5,118.20000000000002L610.5,100.25L646.5,28.44999999999999L646.5,369.5L646.5,369.5L646.5,64.35000000000002L610.5,118.20000000000002L574.5,118.20000000000002L538.5,82.30000000000001L502.5,82.30000000000001L466.5,118.20000000000002L430.5,136.15L394.5,82.30000000000001L358.5,46.39999999999998L322.5,46.39999999999998L286.5,46.39999999999998L250.5,46.39999999999998L214.5,46.39999999999998L178.5,28.44999999999999L142.5,28.44999999999999L106.5,10.5L70.5,10.5L70.5,369.5" stroke="none" stroke-width="0" fill-opacity="0.3" fill="#0099c6"></path>
				</g>
				<g>
					<path d="M70.5,369.5L70.5,369.5L70.5,10.5L106.5,10.5L142.5,10.5L178.5,10.5L214.5,10.5L250.5,10.5L286.5,10.5L322.5,10.5L358.5,10.5L394.5,10.5L430.5,10.5L466.5,10.5L502.5,10.5L538.5,10.5L574.5,10.5L610.5,10.5L646.5,10.5L646.5,369.5L646.5,369.5L646.5,28.44999999999999L610.5,100.25L574.5,118.20000000000002L538.5,82.30000000000001L502.5,82.30000000000001L466.5,118.20000000000002L430.5,136.15L394.5,82.30000000000001L358.5,46.39999999999998L322.5,46.39999999999998L286.5,46.39999999999998L250.5,46.39999999999998L214.5,46.39999999999998L178.5,28.44999999999999L142.5,28.44999999999999L106.5,10.5L70.5,10.5L70.5,369.5" stroke="none" stroke-width="0" fill-opacity="0.3" fill="#dd4477"></path>
				</g>
			</g>
			<g>
				<rect x="70" y="369" width="577" height="1" stroke="none" stroke-width="0" fill="#333333"></rect>
			</g>
			<g>
				<path d="M70.5,172.04999999999998L106.5,154.1L142.5,136.15L178.5,136.15L214.5,154.1L250.5,136.15L286.5,172.04999999999998L322.5,261.8L358.5,261.8L394.5,261.8L430.5,261.8L466.5,297.7L502.5,279.75L538.5,279.75L574.5,351.55L610.5,351.55L646.5,369.5" stroke="#3366cc" stroke-width="2" fill-opacity="1" fill="none"></path>
				<path d="M70.5,46.39999999999998L106.5,46.39999999999998L142.5,64.35000000000002L178.5,64.35000000000002L214.5,100.25L250.5,100.25L286.5,100.25L322.5,100.25L358.5,100.25L394.5,154.1L430.5,225.9L466.5,261.8L502.5,243.85000000000002L538.5,243.85000000000002L574.5,315.65L610.5,315.65L646.5,333.6" stroke="#dc3912" stroke-width="2" fill-opacity="1" fill="none"></path>
				<path d="M70.5,10.5L106.5,10.5L142.5,28.44999999999999L178.5,28.44999999999999L214.5,46.39999999999998L250.5,46.39999999999998L286.5,46.39999999999998L322.5,46.39999999999998L358.5,46.39999999999998L394.5,82.30000000000001L430.5,154.1L466.5,190L502.5,154.1L538.5,154.1L574.5,190L610.5,190L646.5,154.1" stroke="#ff9900" stroke-width="2" fill-opacity="1" fill="none"></path>
				<path d="M70.5,10.5L106.5,10.5L142.5,28.44999999999999L178.5,28.44999999999999L214.5,46.39999999999998L250.5,46.39999999999998L286.5,46.39999999999998L322.5,46.39999999999998L358.5,46.39999999999998L394.5,82.30000000000001L430.5,136.15L466.5,172.04999999999998L502.5,136.15L538.5,136.15L574.5,172.04999999999998L610.5,172.04999999999998L646.5,136.15" stroke="#109618" stroke-width="2" fill-opacity="1" fill="none"></path>
				<path d="M70.5,10.5L106.5,10.5L142.5,28.44999999999999L178.5,28.44999999999999L214.5,46.39999999999998L250.5,46.39999999999998L286.5,46.39999999999998L322.5,46.39999999999998L358.5,46.39999999999998L394.5,82.30000000000001L430.5,136.15L466.5,118.20000000000002L502.5,82.30000000000001L538.5,82.30000000000001L574.5,118.20000000000002L610.5,118.20000000000002L646.5,64.35000000000002" stroke="#990099" stroke-width="2" fill-opacity="1" fill="none"></path>
				<path d="M70.5,10.5L106.5,10.5L142.5,28.44999999999999L178.5,28.44999999999999L214.5,46.39999999999998L250.5,46.39999999999998L286.5,46.39999999999998L322.5,46.39999999999998L358.5,46.39999999999998L394.5,82.30000000000001L430.5,136.15L466.5,118.20000000000002L502.5,82.30000000000001L538.5,82.30000000000001L574.5,118.20000000000002L610.5,100.25L646.5,28.44999999999999" stroke="#0099c6" stroke-width="2" fill-opacity="1" fill="none"></path>
				<path d="M70.5,10.5L106.5,10.5L142.5,10.5L178.5,10.5L214.5,10.5L250.5,10.5L286.5,10.5L322.5,10.5L358.5,10.5L394.5,10.5L430.5,10.5L466.5,10.5L502.5,10.5L538.5,10.5L574.5,10.5L610.5,10.5L646.5,10.5" stroke="#dd4477" stroke-width="2" fill-opacity="1" fill="none"></path>
			</g>
		</g>
		<g></g>
		<g>
			<g>
				<text text-anchor="end" x="72.775" y="382.4404155872192" font-family="Arial" font-size="13" transform="rotate(-30 72.775 382.4404155872192)" stroke="none" stroke-width="0" fill="#222222">2001
				</text>
			</g>
			<g>
				<text text-anchor="end" x="108.775" y="382.4404155872192" font-family="Arial" font-size="13" transform="rotate(-30 108.775 382.4404155872192)" stroke="none" stroke-width="0" fill="#222222">2002
				</text>
			</g>
			<g>
				<text text-anchor="end" x="144.775" y="382.4404155872192" font-family="Arial" font-size="13" transform="rotate(-30 144.775 382.4404155872192)" stroke="none" stroke-width="0" fill="#222222">2003
				</text>
			</g>
			<g>
				<text text-anchor="end" x="180.775" y="382.4404155872192" font-family="Arial" font-size="13" transform="rotate(-30 180.775 382.4404155872192)" stroke="none" stroke-width="0" fill="#222222">2004
				</text>
			</g>
			<g>
				<text text-anchor="end" x="216.775" y="382.4404155872192" font-family="Arial" font-size="13" transform="rotate(-30 216.775 382.4404155872192)" stroke="none" stroke-width="0" fill="#222222">2005
				</text>
			</g>
			<g>
				<text text-anchor="end" x="252.775" y="382.4404155872192" font-family="Arial" font-size="13" transform="rotate(-30 252.775 382.4404155872192)" stroke="none" stroke-width="0" fill="#222222">2006
				</text>
			</g>
			<g>
				<text text-anchor="end" x="288.775" y="382.4404155872192" font-family="Arial" font-size="13" transform="rotate(-30 288.775 382.4404155872192)" stroke="none" stroke-width="0" fill="#222222">2007
				</text>
			</g>
			<g>
				<text text-anchor="end" x="324.775" y="382.4404155872192" font-family="Arial" font-size="13" transform="rotate(-30 324.775 382.4404155872192)" stroke="none" stroke-width="0" fill="#222222">2008
				</text>
			</g>
			<g>
				<text text-anchor="end" x="360.775" y="382.4404155872192" font-family="Arial" font-size="13" transform="rotate(-30 360.775 382.4404155872192)" stroke="none" stroke-width="0" fill="#222222">2009
				</text>
			</g>
			<g>
				<text text-anchor="end" x="396.775" y="382.4404155872192" font-family="Arial" font-size="13" transform="rotate(-30 396.775 382.4404155872192)" stroke="none" stroke-width="0" fill="#222222">2010
				</text>
			</g>
			<g>
				<text text-anchor="end" x="432.775" y="382.4404155872192" font-family="Arial" font-size="13" transform="rotate(-30 432.775 382.4404155872192)" stroke="none" stroke-width="0" fill="#222222">2011
				</text>
			</g>
			<g>
				<text text-anchor="end" x="468.775" y="382.4404155872192" font-family="Arial" font-size="13" transform="rotate(-30 468.775 382.4404155872192)" stroke="none" stroke-width="0" fill="#222222">2012
				</text>
			</g>
			<g>
				<text text-anchor="end" x="504.775" y="382.4404155872192" font-family="Arial" font-size="13" transform="rotate(-30 504.775 382.4404155872192)" stroke="none" stroke-width="0" fill="#222222">2013
				</text>
			</g>
			<g>
				<text text-anchor="end" x="540.775" y="382.4404155872192" font-family="Arial" font-size="13" transform="rotate(-30 540.775 382.4404155872192)" stroke="none" stroke-width="0" fill="#222222">2014
				</text>
			</g>
			<g>
				<text text-anchor="end" x="576.775" y="382.4404155872192" font-family="Arial" font-size="13" transform="rotate(-30 576.775 382.4404155872192)" stroke="none" stroke-width="0" fill="#222222">2015
				</text>
			</g>
			<g>
				<text text-anchor="end" x="612.775" y="382.4404155872192" font-family="Arial" font-size="13" transform="rotate(-30 612.775 382.4404155872192)" stroke="none" stroke-width="0" fill="#222222">2016
				</text>
			</g>
			<g>
				<text text-anchor="end" x="648.775" y="382.4404155872192" font-family="Arial" font-size="13" transform="rotate(-30 648.775 382.4404155872192)" stroke="none" stroke-width="0" fill="#222222">2017
				</text>
			</g>
			<g>
				<text text-anchor="end" x="62" y="374.05" font-family="Arial" font-size="13" stroke="none" stroke-width="0" fill="#444444">0%
				</text>
			</g>
			<g>
				<text text-anchor="end" x="62" y="302.25" font-family="Arial" font-size="13" stroke="none" stroke-width="0" fill="#444444">20%
				</text>
			</g>
			<g>
				<text text-anchor="end" x="62" y="230.45000000000002" font-family="Arial" font-size="13" stroke="none" stroke-width="0" fill="#444444">40%
				</text>
			</g>
			<g>
				<text text-anchor="end" x="62" y="158.64999999999998" font-family="Arial" font-size="13" stroke="none" stroke-width="0" fill="#444444">60%
				</text>
			</g>
			<g>
				<text text-anchor="end" x="62" y="86.85000000000001" font-family="Arial" font-size="13" stroke="none" stroke-width="0" fill="#444444">80%
				</text>
			</g>
			<g>
				<text text-anchor="end" x="62" y="15.05" font-family="Arial" font-size="13" stroke="none" stroke-width="0" fill="#444444">100%
				</text>
			</g>
		</g>
	</g>
	<g>
		<g>
			<text text-anchor="middle" x="19.05" y="190" font-family="Arial" font-size="13" font-style="italic" transform="rotate(-90 19.05 190)" stroke="none" stroke-width="0" fill="#222222">Focusing
			</text>
			<path d="M7.999999999999988,370L8.00000000000001,10L21.00000000000001,10.000000000000002L20.99999999999999,370Z" stroke="none" stroke-width="0" fill-opacity="0" fill="#ffffff"></path>
		</g>
	</g>
</svg>
