<svg width="780" height="400" aria-label="A chart."><path fill="#fff" d="M0 0h780v400H0z"/><path fill="none" d="M660 10h107v139H660z"/><path fill="none" d="M660 10h107v13H660z"/><text x="691" y="21.05" font-family="Arial" font-size="13" stroke-width="0" fill="#222">Consulting</text><path fill-opacity=".3" fill="#d47" d="M660 16.5h26V23h-26z"/><path d="M660 16.5h26" stroke="#d47" stroke-width="2" fill="none"/><path fill="none" d="M660 31h107v13H660z"/><text x="691" y="42.05" font-family="Arial" font-size="13" stroke-width="0" fill="#222">CI</text><path fill-opacity=".3" fill="#0099c6" d="M660 37.5h26V44h-26z"/><path d="M660 37.5h26" stroke="#0099c6" stroke-width="2" fill="none"/><g><path fill="none" d="M660 52h107v13H660z"/><text x="691" y="63.05" font-family="Arial" font-size="13" stroke-width="0" fill="#222">Performance</text><path fill-opacity=".3" fill="#909" d="M660 58.5h26V65h-26z"/><path d="M660 58.5h26" stroke="#909" stroke-width="2" fill="none"/></g><g><path fill="none" d="M660 73h107v13H660z"/><text x="691" y="84.05" font-family="Arial" font-size="13" stroke-width="0" fill="#222">Bash</text><path fill-opacity=".3" fill="#109618" d="M660 79.5h26V86h-26z"/><path d="M660 79.5h26" stroke="#109618" stroke-width="2" fill="none"/></g><g><path fill="none" d="M660 94h107v13H660z"/><text x="691" y="105.05" font-family="Arial" font-size="13" stroke-width="0" fill="#222">JavaScript</text><path fill-opacity=".3" fill="#f90" d="M660 100.5h26v6.5h-26z"/><path d="M660 100.5h26" stroke="#f90" stroke-width="2" fill="none"/></g><g><path fill="none" d="M660 115h107v13H660z"/><text x="691" y="126.05" font-family="Arial" font-size="13" stroke-width="0" fill="#222">HTML/CSS</text><path fill-opacity=".3" fill="#dc3912" d="M660 121.5h26v6.5h-26z"/><path d="M660 121.5h26" stroke="#dc3912" stroke-width="2" fill="none"/></g><g><path fill="none" d="M660 136h107v13H660z"/><text x="691" y="147.05" font-family="Arial" font-size="13" stroke-width="0" fill="#222">PHP</text><path fill-opacity=".3" fill="#36c" d="M660 142.5h26v6.5h-26z"/><path d="M660 142.5h26" stroke="#36c" stroke-width="2" fill="none"/></g><g><path fill="none" d="M70 10h577v360H70z"/><g clip-path="url(http://localhost:63342/my-resume/chart.html?_ijt=clic6gl2on45h3tajpj0d49t6h#_ABSTRACT_RENDERER_ID_0)"><g fill="#ccc"><path d="M70 369h577v1H70zM70 297h577v1H70zM70 225h577v1H70zM70 154h577v1H70zM70 82h577v1H70zM70 10h577v1H70z"/></g><path d="M70.5 369.5V172.05l36-17.95 36-17.95h36l36 17.95 36-17.95 36 35.9 36 89.75h108l36 35.9 36-17.95h36l36 71.8h36l36 17.95h-576" fill-opacity=".3" fill="#36c"/><path d="M70.5 369.5V46.4h36l36 17.95h36l36 35.9h144l36 53.85 36 71.8 36 35.9 36-17.95h36l36 71.8h36l36 17.95v35.9l-36-17.95h-36l-36-71.8h-36l-36 17.95-36-35.9h-108l-36-89.75-36-35.9-36 17.95-36-17.95h-36l-36 17.95-36 17.95V369.5" fill-opacity=".3" fill="#dc3912"/><path d="M70.5 369.5v-359h36l36 17.95h36l36 17.95h144l36 35.9 36 71.8 36 35.9 36-35.9h36l36 35.9h36l36-35.9v215.4-35.9l-36-17.95h-36l-36-71.8h-36l-36 17.95-36-35.9-36-71.8-36-53.85h-144l-36-35.9h-36l-36-17.95h-36v323.1" fill-opacity=".3" fill="#f90"/><path d="M70.5 369.5v-359h36l36 17.95h36l36 17.95h144l36 35.9 36 53.85 36 35.9 36-35.9h36l36 35.9h36l36-35.9V369.5 154.1l-36 35.9h-36l-36-35.9h-36l-36 35.9-36-35.9-36-71.8-36-35.9h-144l-36-17.95h-36l-36-17.95h-36v359" fill-opacity=".3" fill="#109618"/><path d="M70.5 369.5v-359h36l36 17.95h36l36 17.95h144l36 35.9 36 53.85 36-17.95 36-35.9h36l36 35.9h36l36-53.85V369.5 136.15l-36 35.9h-36l-36-35.9h-36l-36 35.9-36-35.9-36-53.85-36-35.9h-144l-36-17.95h-36l-36-17.95h-36v359" fill-opacity=".3" fill="#909"/><path d="M70.5 369.5v-359h36l36 17.95h36l36 17.95h144l36 35.9 36 53.85 36-17.95 36-35.9h36l36 35.9 36-17.95 36-71.8V369.5 64.35l-36 53.85h-36l-36-35.9h-36l-36 35.9-36 17.95-36-53.85-36-35.9h-144l-36-17.95h-36l-36-17.95h-36v359" fill-opacity=".3" fill="#0099c6"/><path d="M70.5 369.5v-359h576v359V28.45l-36 71.8-36 17.95-36-35.9h-36l-36 35.9-36 17.95-36-53.85-36-35.9h-144l-36-17.95h-36l-36-17.95h-36v359" fill-opacity=".3" fill="#d47"/><g><path fill="#333" d="M70 369h577v1H70z"/></g><g stroke-width="2" fill="none"><path d="M70.5 172.05l36-17.95 36-17.95h36l36 17.95 36-17.95 36 35.9 36 89.75h108l36 35.9 36-17.95h36l36 71.8h36l36 17.95" stroke="#36c"/><path d="M70.5 46.4h36l36 17.95h36l36 35.9h144l36 53.85 36 71.8 36 35.9 36-17.95h36l36 71.8h36l36 17.95" stroke="#dc3912"/><path d="M70.5 10.5h36l36 17.95h36l36 17.95h144l36 35.9 36 71.8 36 35.9 36-35.9h36l36 35.9h36l36-35.9" stroke="#f90"/><path d="M70.5 10.5h36l36 17.95h36l36 17.95h144l36 35.9 36 53.85 36 35.9 36-35.9h36l36 35.9h36l36-35.9" stroke="#109618"/><path d="M70.5 10.5h36l36 17.95h36l36 17.95h144l36 35.9 36 53.85 36-17.95 36-35.9h36l36 35.9h36l36-53.85" stroke="#909"/><path d="M70.5 10.5h36l36 17.95h36l36 17.95h144l36 35.9 36 53.85 36-17.95 36-35.9h36l36 35.9 36-17.95 36-71.8" stroke="#0099c6"/><path d="M70.5 10.5h576" stroke="#d47"/></g></g><text text-anchor="end" x="72.775" y="382.44" font-family="Arial" font-size="13" transform="rotate(-30 72.775 382.44)" stroke-width="0" fill="#222">2001</text><text text-anchor="end" x="108.775" y="382.44" font-family="Arial" font-size="13" transform="rotate(-30 108.775 382.44)" stroke-width="0" fill="#222">2002</text><text text-anchor="end" x="144.775" y="382.44" font-family="Arial" font-size="13" transform="rotate(-30 144.775 382.44)" stroke-width="0" fill="#222">2003</text><text text-anchor="end" x="180.775" y="382.44" font-family="Arial" font-size="13" transform="rotate(-30 180.775 382.44)" stroke-width="0" fill="#222">2004</text><text text-anchor="end" x="216.775" y="382.44" font-family="Arial" font-size="13" transform="rotate(-30 216.775 382.44)" stroke-width="0" fill="#222">2005</text><text text-anchor="end" x="252.775" y="382.44" font-family="Arial" font-size="13" transform="rotate(-30 252.775 382.44)" stroke-width="0" fill="#222">2006</text><text text-anchor="end" x="288.775" y="382.44" font-family="Arial" font-size="13" transform="rotate(-30 288.775 382.44)" stroke-width="0" fill="#222">2007</text><text text-anchor="end" x="324.775" y="382.44" font-family="Arial" font-size="13" transform="rotate(-30 324.775 382.44)" stroke-width="0" fill="#222">2008</text><text text-anchor="end" x="360.775" y="382.44" font-family="Arial" font-size="13" transform="rotate(-30 360.775 382.44)" stroke-width="0" fill="#222">2009</text><text text-anchor="end" x="396.775" y="382.44" font-family="Arial" font-size="13" transform="rotate(-30 396.775 382.44)" stroke-width="0" fill="#222">2010</text><text text-anchor="end" x="432.775" y="382.44" font-family="Arial" font-size="13" transform="rotate(-30 432.775 382.44)" stroke-width="0" fill="#222">2011</text><text text-anchor="end" x="468.775" y="382.44" font-family="Arial" font-size="13" transform="rotate(-30 468.775 382.44)" stroke-width="0" fill="#222">2012</text><text text-anchor="end" x="504.775" y="382.44" font-family="Arial" font-size="13" transform="rotate(-30 504.775 382.44)" stroke-width="0" fill="#222">2013</text><text text-anchor="end" x="540.775" y="382.44" font-family="Arial" font-size="13" transform="rotate(-30 540.775 382.44)" stroke-width="0" fill="#222">2014</text><text text-anchor="end" x="576.775" y="382.44" font-family="Arial" font-size="13" transform="rotate(-30 576.775 382.44)" stroke-width="0" fill="#222">2015</text><text text-anchor="end" x="612.775" y="382.44" font-family="Arial" font-size="13" transform="rotate(-30 612.775 382.44)" stroke-width="0" fill="#222">2016</text><text text-anchor="end" x="648.775" y="382.44" font-family="Arial" font-size="13" transform="rotate(-30 648.775 382.44)" stroke-width="0" fill="#222">2017</text><text text-anchor="end" x="62" y="374.05" font-family="Arial" font-size="13" stroke-width="0" fill="#444">0%</text><text text-anchor="end" x="62" y="302.25" font-family="Arial" font-size="13" stroke-width="0" fill="#444">20%</text><text text-anchor="end" x="62" y="230.45" font-family="Arial" font-size="13" stroke-width="0" fill="#444">40%</text><text text-anchor="end" x="62" y="158.65" font-family="Arial" font-size="13" stroke-width="0" fill="#444">60%</text><text text-anchor="end" x="62" y="86.85" font-family="Arial" font-size="13" stroke-width="0" fill="#444">80%</text><text text-anchor="end" x="62" y="15.05" font-family="Arial" font-size="13" stroke-width="0" fill="#444">100%</text></g><g><text text-anchor="middle" x="19.05" y="190" font-family="Arial" font-size="13" font-style="italic" transform="rotate(-90 19.05 190)" stroke-width="0" fill="#222">Focusing</text><path d="M8 370V10h13v360z" fill="none"/></g></svg>